<svg width="166" height="44" viewBox="0 0 166 44" fill="none" xmlns="http://www.w3.org/2000/svg">
<path fill-rule="evenodd" clip-rule="evenodd" d="M10.5336 34.974C7.39766 34.974 4.88085 32.4291 4.88085 29.0559C4.88085 25.6828 7.39766 23.1659 10.5336 23.1659C13.0786 23.1659 15.0888 24.557 15.712 27.4276L20.5044 26.3019C19.5596 21.598 15.4145 18.6992 10.5336 18.6992C4.64364 18.6992 0 23.2544 0 29.0559C0 34.8856 4.64364 39.4126 10.5336 39.4126C15.6235 39.4126 19.6159 36.5139 20.5325 31.5406L15.7401 30.5917C15.0607 33.5548 13.0504 34.974 10.5336 34.974Z" fill="white"/>
<path fill-rule="evenodd" clip-rule="evenodd" d="M30.5355 23.7328C26.0366 23.7328 22.3096 26.8688 22.3096 31.5446C22.3096 36.2485 26.0366 39.3845 30.5355 39.3845C34.9459 39.3845 38.6729 36.2485 38.6729 31.5446C38.6729 26.8688 34.9419 23.7328 30.5355 23.7328ZM30.5355 35.3882C28.6137 35.3882 26.8648 33.8805 26.8648 31.5406C26.8648 29.2328 28.6097 27.693 30.5355 27.693C32.3688 27.693 34.1137 29.2328 34.1137 31.5406C34.1137 33.8805 32.3688 35.3882 30.5355 35.3882Z" fill="white"/>
<path fill-rule="evenodd" clip-rule="evenodd" d="M52.0168 25.3008C50.8629 24.2635 49.3231 23.6725 47.4013 23.6725C43.4653 23.6725 40.1524 26.8688 40.1524 31.5446C40.1524 36.2485 43.4653 39.4167 47.4013 39.4167C49.3231 39.4167 50.8629 38.8257 52.0168 37.7884V38.9704H56.7489V17.6659H52.0168V25.3008ZM48.3783 35.3882C46.3077 35.3882 44.8001 33.8483 44.8001 31.5406C44.8001 29.261 46.3077 27.693 48.3783 27.693C50.3001 27.693 52.0168 29.261 52.0168 31.5406C52.0168 33.8483 50.3001 35.3882 48.3783 35.3882Z" fill="white"/>
<path fill-rule="evenodd" clip-rule="evenodd" d="M67.0775 23.6725C62.7595 23.6725 59.2054 26.8688 59.2054 31.5446C59.2054 36.2485 62.7555 39.4167 67.0453 39.4167C70.4466 39.4167 73.1404 37.909 74.4108 34.773L70.2094 33.9167C69.4094 35.3681 68.1389 35.6334 67.0453 35.6334C65.4492 35.6334 64.235 34.5398 63.8491 32.7628H74.7365V31.5486C74.652 26.6919 71.2789 23.6725 67.0775 23.6725ZM63.9375 29.856C64.3798 28.3483 65.7427 27.5201 67.0735 27.5201C68.4364 27.5201 69.6184 28.2599 70.0607 29.856H63.9375Z" fill="white"/>
<path fill-rule="evenodd" clip-rule="evenodd" d="M81.9291 26.9572V24.1188H77.197V38.9704H81.9291V34.3268C81.9291 30.4792 83.7343 28.7624 87.0471 28.7624H87.9035L88.1085 24.0303C87.7547 23.9419 87.4572 23.9138 87.0431 23.9138C84.6228 23.9097 82.9945 25.1802 81.9291 26.9572Z" fill="white"/>
<path fill-rule="evenodd" clip-rule="evenodd" d="M98.7065 29.9444L95.2167 29.2328C94.2719 29.0237 94.091 28.6096 94.091 28.1955C94.091 27.6648 94.5051 27.0417 95.7796 27.0417C97.231 27.0417 98.1155 27.8699 98.2642 28.7865L102.586 27.9302C101.995 25.3571 99.5387 23.6685 95.8399 23.6685C92.0808 23.6685 89.4474 25.6506 89.4474 28.6981C89.4474 31.034 91.0153 32.5135 93.7653 33.0201L96.7847 33.6111C97.8783 33.8162 98.2642 34.2021 98.2642 34.7047C98.2642 35.356 97.5848 35.8867 96.3425 35.8867C95.068 35.8867 93.9141 35.4123 93.709 34.1418L89.0936 35.0906C89.5961 38.1382 92.5833 39.4086 96.0771 39.4086C99.981 39.4086 102.823 37.6919 102.823 34.4072C102.819 32.2241 101.517 30.5355 98.7065 29.9444Z" fill="white"/>
<path fill-rule="evenodd" clip-rule="evenodd" d="M114.684 23.6725C112.762 23.6725 111.222 24.2635 110.068 25.3008V17.6659H105.336V38.9704H110.068V37.7884C111.222 38.8257 112.762 39.4167 114.684 39.4167C118.62 39.4167 121.933 36.2526 121.933 31.5446C121.933 26.8688 118.62 23.6725 114.684 23.6725ZM113.707 35.3882C111.785 35.3882 110.068 33.8483 110.068 31.5406C110.068 29.261 111.785 27.693 113.707 27.693C115.777 27.693 117.285 29.261 117.285 31.5406C117.285 33.8483 115.777 35.3882 113.707 35.3882Z" fill="white"/>
<path fill-rule="evenodd" clip-rule="evenodd" d="M135.277 25.3008C134.123 24.2635 132.583 23.6725 130.661 23.6725C126.725 23.6725 123.412 26.8688 123.412 31.5446C123.412 36.2485 126.725 39.4167 130.661 39.4167C132.583 39.4167 134.123 38.8257 135.277 37.7884V38.9704H140.013V24.1148H135.277V25.3008ZM131.638 35.3882C129.568 35.3882 128.056 33.8483 128.056 31.5406C128.056 29.261 129.564 27.693 131.638 27.693C133.56 27.693 135.277 29.261 135.277 31.5406C135.277 33.8483 133.56 35.3882 131.638 35.3882Z" fill="white"/>
<path fill-rule="evenodd" clip-rule="evenodd" d="M150.542 32.7547L147.02 24.0866H141.935L148.086 38.4678L145.69 44H150.808L159.391 24.0866H154.302L150.542 32.7547Z" fill="white"/>
<path fill-rule="evenodd" clip-rule="evenodd" d="M133.158 10.602V21.1999L143.844 10.602H133.158Z" fill="white"/>
<path fill-rule="evenodd" clip-rule="evenodd" d="M143.961 21.216L154.647 10.6181H143.961V21.216Z" fill="white"/>
<path fill-rule="evenodd" clip-rule="evenodd" d="M154.647 21.216L165.334 10.6181H154.647V21.216Z" fill="white"/>
<path fill-rule="evenodd" clip-rule="evenodd" d="M143.961 0V10.602L154.647 0H143.961Z" fill="white"/>
<path fill-rule="evenodd" clip-rule="evenodd" d="M165.334 0H154.647V10.602L165.334 0Z" fill="white"/>
</svg>
